# xmcd CD database file generated by OrangeCD 5.2
#
# Track frame offsets:
#	150
#	17121
#	34071
#	49927
#
# Disc length: 922 seconds
#
# Revision: 0
# Processed by: cddbd v1.5.1PL2 Copyright (c) Steve Scherf et al.
# Submitted via: OrangeCD 5.2
#
DISCID=2c039804
DTITLE=Natasha Bedingfield - I Bruise Easily [CD Maxi)
DYEAR=2005
DGENRE=Pop
TTITLE0=I Bruise Easily
TTITLE1=I Bruise Easily (Brits performance with Daniel Bedingfield)
TTITLE2=You Look Good On Me
TTITLE3=I Bruise Easily (Album version)
EXTD=
EXTT0=
EXTT1=
EXTT2=
EXTT3=
PLAYORDER=
